<svg width="137" height="24" viewBox="0 0 137 24" fill="none" xmlns="http://www.w3.org/2000/svg">
<path d="M82.4866 21.9989V1.97058H89.0148C91.4891 1.97058 93.1024 2.07031 93.8525 2.26975C95.0182 2.57281 96.0453 3.26231 96.7633 4.22422C97.5411 5.23101 97.9304 6.5316 97.9304 8.12602C97.9304 9.3561 97.7058 10.3903 97.2566 11.2288C96.8531 12.0121 96.2669 12.6879 95.5467 13.1993C94.9111 13.6533 94.1917 13.9773 93.4295 14.1524C92.4563 14.3435 91.0489 14.4391 89.2072 14.4391H86.5547V21.9989H82.4866ZM86.5547 5.35283V11.0371H88.782C90.3863 11.0371 91.4584 10.9326 91.9989 10.7236C92.5147 10.5337 92.9586 10.1902 93.2708 9.7401C93.5815 9.27975 93.7417 8.73562 93.7305 8.18152C93.7552 7.52025 93.5246 6.87462 93.0852 6.37753C92.6584 5.90217 92.0812 5.58612 91.4494 5.48182C90.9688 5.38985 89.9925 5.34447 88.5207 5.34566L86.5547 5.35283Z" fill="black" fill-opacity="0.4"/>
<path d="M113.552 14.6325L117.496 15.8758C116.896 18.0625 115.89 19.6868 114.48 20.7485C113.07 21.8102 111.286 22.3411 109.126 22.3411C106.449 22.3411 104.249 21.4322 102.526 19.6145C100.804 17.7968 99.942 15.3115 99.942 12.1585C99.942 8.82285 100.808 6.233 102.541 4.389C104.273 2.54501 106.552 1.62241 109.377 1.62121C111.843 1.62121 113.846 2.34556 115.384 3.79424C116.301 4.65055 116.989 5.88068 117.448 7.48462L113.421 8.44125C113.234 7.46791 112.703 6.59324 111.923 5.97619C111.144 5.35915 110.167 5.0407 109.171 5.07871C107.677 5.07871 106.465 5.61196 105.535 6.67846C104.605 7.74495 104.14 9.4713 104.14 11.8576C104.14 14.3906 104.599 16.1946 105.516 17.2695C105.948 17.791 106.495 18.2074 107.114 18.4868C107.734 18.7662 108.409 18.9014 109.089 18.8818C110.116 18.9022 111.113 18.5354 111.88 17.8553C112.661 17.1721 113.22 16.0973 113.558 14.6307L113.552 14.6325Z" fill="black" fill-opacity="0.4"/>
<path d="M120.972 1.96344H124.78V15.3026L132.946 1.96344H137V21.999H133.193V8.9196L125.041 21.999H120.972V1.96344Z" fill="black" fill-opacity="0.4"/>
<path d="M15.965 22.0221L13.464 15.6642H4.37328L2.00734 22.0221H0L7.71405 1.97937H9.91058L18.0806 22.0221H15.965ZM7.3014 7.83022L4.93728 14.0913H12.8441L10.3971 7.91265C9.85413 6.57264 9.32678 5.07976 8.81501 3.43403H8.75916C8.60419 4.00012 8.39577 4.68147 8.13389 5.47806C7.87261 6.27705 7.59329 7.0617 7.3014 7.83742V7.83022Z" fill="black" fill-opacity="0.4"/>
<path d="M34.6433 10.5103V1.97772H36.5552V22.0205H34.6433V12.2194H23.711V22.0205H21.7992V1.97772H23.711V10.5103H34.6433Z" fill="black" fill-opacity="0.4"/>
<path d="M40.2376 12.0278C40.2376 9.94133 40.6406 8.1141 41.4466 6.54595C42.195 5.04073 43.362 3.78049 44.809 2.9147C46.2842 2.07993 47.9525 1.64099 49.6499 1.64099C51.3473 1.64099 53.0156 2.07993 54.4908 2.9147C55.9324 3.77752 57.0954 5.03261 57.8424 6.53162C58.6472 8.0997 59.0497 9.9234 59.0497 12.0027C59.0497 14.0533 58.6442 15.8651 57.8334 17.438C57.0821 18.9445 55.9161 20.2081 54.471 21.0817C53.0065 21.9208 51.3465 22.3637 49.6564 22.3662C47.9661 22.3687 46.3048 21.9308 44.8378 21.0961C43.3944 20.2301 42.2263 18.9763 41.4683 17.4791C40.6465 15.917 40.2364 14.101 40.2376 12.0313V12.0278ZM49.6075 3.26402C48.2522 3.24034 46.9199 3.61497 45.7778 4.34093C44.6356 5.0669 43.7345 6.11191 43.1873 7.34494C42.5494 8.6766 42.2305 10.2584 42.2305 12.0905C42.2305 13.9583 42.5746 15.5438 43.263 16.8468C43.8552 18.0428 44.7755 19.048 45.9177 19.7463C47.0599 20.4446 48.3774 20.8076 49.7183 20.7934C51.0591 20.7791 52.3685 20.3882 53.4955 19.6658C54.6224 18.9434 55.5209 17.9189 56.0873 16.7106C56.7324 15.3969 57.0555 13.8473 57.0567 12.0618C57.0579 10.2764 56.739 8.71778 56.0999 7.38614C55.5329 6.13686 54.6165 5.07598 53.4601 4.32994C52.3078 3.61592 50.9724 3.24826 49.6147 3.27119L49.6075 3.26402Z" fill="black" fill-opacity="0.4"/>
<path d="M69.4245 0H72.1076V24H69.4245V0Z" fill="black" fill-opacity="0.4"/>
<path d="M73.1136 0H75.7967V24H73.1136V0Z" fill="black" fill-opacity="0.4"/>
<path d="M65.7397 0H68.421V24H65.7397V0Z" fill="black" fill-opacity="0.4"/>
</svg>
