<svg width="93" height="24" viewBox="0 0 93 24" fill="none" xmlns="http://www.w3.org/2000/svg">
<path d="M38.4866 21.9989V1.97058H45.0148C47.4891 1.97058 49.1024 2.07031 49.8525 2.26975C51.0182 2.57281 52.0453 3.26231 52.7633 4.22422C53.5411 5.23101 53.9304 6.5316 53.9304 8.12602C53.9304 9.3561 53.7058 10.3903 53.2566 11.2288C52.8531 12.0121 52.2669 12.6879 51.5467 13.1993C50.9111 13.6533 50.1917 13.9773 49.4295 14.1524C48.4563 14.3435 47.0489 14.4391 45.2072 14.4391H42.5547V21.9989H38.4866ZM42.5547 5.35283V11.0371H44.782C46.3863 11.0371 47.4584 10.9326 47.9989 10.7236C48.5147 10.5337 48.9586 10.1902 49.2708 9.7401C49.5815 9.27975 49.7417 8.73562 49.7305 8.18152C49.7552 7.52025 49.5246 6.87462 49.0852 6.37753C48.6584 5.90217 48.0812 5.58612 47.4494 5.48182C46.9688 5.38985 45.9925 5.34447 44.5207 5.34566L42.5547 5.35283Z" fill="black" fill-opacity="0.4"/>
<path d="M69.5517 14.6325L73.4963 15.8758C72.8959 18.0625 71.8904 19.6868 70.48 20.7485C69.0695 21.8102 67.2855 22.3411 65.1264 22.3411C62.4485 22.3411 60.249 21.4322 58.5264 19.6145C56.8037 17.7968 55.942 15.3115 55.942 12.1585C55.942 8.82285 56.8082 6.233 58.5406 4.389C60.2729 2.54501 62.5518 1.62241 65.3772 1.62121C67.8433 1.62121 69.8459 2.34556 71.3843 3.79424C72.3014 4.65055 72.9887 5.88068 73.4476 7.48462L69.4207 8.44125C69.2342 7.46791 68.7035 6.59324 67.9234 5.97619C67.144 5.35915 66.167 5.0407 65.1713 5.07871C63.677 5.07871 62.465 5.61196 61.5352 6.67846C60.6053 7.74495 60.1404 9.4713 60.1404 11.8576C60.1404 14.3906 60.5986 16.1946 61.5157 17.2695C61.9484 17.791 62.4949 18.2074 63.1141 18.4868C63.7339 18.7662 64.4092 18.9014 65.089 18.8818C66.1161 18.9022 67.1133 18.5354 67.8799 17.8553C68.6608 17.1721 69.22 16.0973 69.5577 14.6307L69.5517 14.6325Z" fill="black" fill-opacity="0.4"/>
<path d="M76.9722 1.96344H80.7799V15.3026L88.9461 1.96344H93V21.999H89.1931V8.9196L81.0411 21.999H76.9722V1.96344Z" fill="black" fill-opacity="0.4"/>
<path d="M-28.035 22.0221L-30.536 15.6642H-39.6267L-41.9927 22.0221H-44L-36.2859 1.97937H-34.0894L-25.9194 22.0221H-28.035ZM-36.6986 7.83022L-39.0627 14.0913H-31.1559L-33.6029 7.91265C-34.1459 6.57264 -34.6732 5.07976 -35.185 3.43403H-35.2408C-35.3958 4.00012 -35.6042 4.68147 -35.8661 5.47806C-36.1274 6.27705 -36.4067 7.0617 -36.6986 7.83742V7.83022Z" fill="black" fill-opacity="0.4"/>
<path d="M-9.3567 10.5103V1.97772H-7.44481V22.0205H-9.3567V12.2194H-20.289V22.0205H-22.2008V1.97772H-20.289V10.5103H-9.3567Z" fill="black" fill-opacity="0.4"/>
<path d="M-3.76244 12.0278C-3.76244 9.94133 -3.35944 8.1141 -2.55338 6.54595C-1.80495 5.04073 -0.638039 3.78049 0.809021 2.9147C2.28423 2.07993 3.95251 1.64099 5.64992 1.64099C7.34732 1.64099 9.0156 2.07993 10.4908 2.9147C11.9324 3.77752 13.0954 5.03261 13.8424 6.53162C14.6472 8.0997 15.0497 9.9234 15.0497 12.0027C15.0497 14.0533 14.6442 15.8651 13.8334 17.438C13.0821 18.9445 11.9161 20.2081 10.471 21.0817C9.00655 21.9208 7.3465 22.3637 5.65636 22.3662C3.96614 22.3687 2.30481 21.9308 0.837841 21.0961C-0.605621 20.2301 -1.77366 18.9763 -2.53174 17.4791C-3.35345 15.917 -3.76363 14.101 -3.76244 12.0313V12.0278ZM5.60754 3.26402C4.25219 3.24034 2.9199 3.61497 1.77777 4.34093C0.635635 5.0669 -0.265514 6.11191 -0.812698 7.34494C-1.45062 8.6766 -1.76954 10.2584 -1.76954 12.0905C-1.76954 13.9583 -1.42539 15.5438 -0.737011 16.8468C-0.144829 18.0428 0.775482 19.048 1.91769 19.7463C3.0599 20.4446 4.37744 20.8076 5.71827 20.7934C7.05909 20.7791 8.36847 20.3882 9.49549 19.6658C10.6224 18.9434 11.5209 17.9189 12.0873 16.7106C12.7324 15.3969 13.0555 13.8473 13.0567 12.0618C13.0579 10.2764 12.739 8.71778 12.0999 7.38614C11.5329 6.13686 10.6165 5.07598 9.46008 4.32994C8.30776 3.61592 6.9724 3.24826 5.61473 3.27119L5.60754 3.26402Z" fill="black" fill-opacity="0.4"/>
<path d="M25.4245 0H28.1076V24H25.4245V0Z" fill="black" fill-opacity="0.4"/>
<path d="M29.1136 0H31.7967V24H29.1136V0Z" fill="black" fill-opacity="0.4"/>
<path d="M21.7397 0H24.421V24H21.7397V0Z" fill="black" fill-opacity="0.4"/>
</svg>
