<svg width="140" height="24" viewBox="0 0 140 24" fill="none" xmlns="http://www.w3.org/2000/svg">
<path d="M5.51724 9.67742L5.57241 14.3226H13.3793L15.1724 9.67742H5.51724ZM22.731 0.0552995V4.67281H28.8V24H33.4069V4.67281H39.4483V0.0552995H22.731ZM0 3.62212L3.28276 6.88479C4.6069 5.52995 6.45517 4.67281 8.52414 4.67281C12.5517 4.67281 15.8345 7.96313 15.8345 12C15.8345 16.0369 12.5517 19.3272 8.49655 19.3272C6.45517 19.3272 4.57931 18.47 3.25517 17.1152L0 20.3779C2.15172 22.5899 5.18621 23.9447 8.49655 23.9447C15.0897 23.9447 20.4138 18.5806 20.4138 12C20.4138 5.41935 15.0897 0.0552995 8.49655 0.0552995C5.18621 0.0552995 2.15172 1.41014 0 3.62212ZM48.7448 0.0276498L39.4483 23.9724H44.3862L46.2069 19.2719H52.7172L54.5103 14.6267H48L51.2828 6.1659L58.1793 23.9724H63.1172L53.8207 0.0276498H48.7448ZM74.6759 0.0276498L65.4069 23.9724H70.3448L77.2414 6.1659L84.1379 23.9724H89.0759L79.7793 0.0276498H74.6759ZM118.924 0.0276498V23.9724H123.586V14.3226H133.434L135.228 9.67742H123.586V0.0276498H118.924ZM135.338 0.0276498V10.7834V23.9724H140V0.0276498H135.338ZM95.0897 11.9724C95.0897 7.93548 98.3724 4.64516 102.4 4.64516C106.428 4.64516 109.71 7.93548 109.71 11.9724C109.71 16.0092 106.428 19.2995 102.4 19.2995C98.3448 19.2995 95.0897 16.0092 95.0897 11.9724ZM90.4552 11.9724C90.4552 18.5806 95.8069 23.9171 102.372 23.9171C108.966 23.9171 114.29 18.553 114.29 11.9724C114.29 5.39171 108.993 0 102.4 0C95.8069 0 90.4552 5.36406 90.4552 11.9724Z" fill="black" fill-opacity="0.4"/>
</svg>
