<svg width="66" height="24" viewBox="0 0 66 24" fill="none" xmlns="http://www.w3.org/2000/svg">
<path fill-rule="evenodd" clip-rule="evenodd" d="M0.000712734 0H5.56695C5.75656 0.456909 5.92962 0.921146 6.11287 1.38063C8.19406 6.68796 10.2731 11.9961 12.356 17.3027C12.9937 15.6512 13.6209 13.9952 14.2549 12.3422C15.6231 8.76164 16.9921 5.18147 18.3602 1.60092C18.5659 1.0677 18.7656 0.531937 18.9749 0H30.3764C30.6091 0.0209964 30.8443 0.0139909 31.0775 0.0347055C32.4017 0.121469 33.7218 0.434161 34.9076 1.04165C35.5442 1.3603 36.1349 1.76698 36.6777 2.22784C37.2908 2.73274 37.8346 3.32787 38.2515 4.00674C38.7051 4.73984 38.9989 5.56977 39.1206 6.42368C39.2537 7.37813 39.2127 8.36202 38.9654 9.295C38.7753 10.0111 38.4554 10.6911 38.0313 11.2973C37.5827 11.9406 37.0245 12.5021 36.4079 12.9829C35.7695 13.4813 35.0633 13.8911 34.3148 14.1983C33.523 14.5258 32.6855 14.7317 31.8383 14.8495C32.8861 14.8505 33.9341 14.8497 34.9818 14.8497C36.6946 17.8993 38.4067 20.9493 40.1184 23.9996C38.1938 24 36.2692 24.0002 34.3448 23.9994C32.6731 20.983 31.0018 17.9663 29.3308 14.9495C27.7513 14.9495 26.1717 14.9493 24.5921 14.9496C24.5915 17.9663 24.5925 20.9832 24.5915 23.9999C22.8502 23.9997 21.1087 24.0003 19.3675 23.9997C19.3663 16.8989 19.3695 9.79827 19.3657 2.69775C19.3407 2.75611 19.3179 2.81562 19.2964 2.87557C16.6589 9.91706 14.02 16.9579 11.3834 23.9997C10.8562 24.0001 10.3293 23.9999 9.80207 23.9999C7.00448 16.8642 4.20761 9.7282 1.41005 2.59251C1.40873 9.7282 1.40985 16.864 1.40941 23.9997C0.939705 24.0001 0.469998 24.0001 0.000291778 23.9997C0.000291778 15.9997 -0.000590225 7.99999 0.000712734 0ZM24.5921 1.19424C24.5919 5.38316 24.5917 9.57194 24.5921 13.7606C25.9315 13.7608 27.2706 13.7608 28.6099 13.7606C28.9212 13.7516 29.2322 13.7108 29.5349 13.6361C30.2848 13.4534 30.9739 13.0415 31.5036 12.48C32.0264 11.9322 32.4047 11.2581 32.6614 10.5476C32.994 9.62895 33.1319 8.64904 33.1517 7.67487C33.1658 6.63133 33.0517 5.57672 32.7209 4.58348C32.4712 3.83118 32.0911 3.11329 31.5514 2.52992C31.0405 1.97177 30.3761 1.55251 29.6464 1.35255C29.2176 1.23023 28.7701 1.19046 28.3258 1.19424C27.0812 1.19424 25.8365 1.19424 24.5921 1.19424ZM49.2965 6.2693C49.9915 6.05239 50.7202 5.95546 51.4467 5.94862C52.2396 5.94197 53.0428 6.02717 53.7947 6.29144C54.3032 6.46835 54.7795 6.74429 55.1717 7.11604C55.5804 7.49668 55.8958 7.98779 56.028 8.53472C56.0787 8.74485 56.1065 8.96107 56.1041 9.1776C55.9422 9.1774 55.7806 9.1782 55.6194 9.17699C55.6216 8.83529 55.5573 8.49082 55.4132 8.18008C55.3011 7.93923 55.1411 7.72254 54.9519 7.53742C54.4466 7.06265 53.8037 6.73601 53.12 6.6226C52.4345 6.50888 51.7256 6.52085 51.0465 6.6723C50.344 6.83061 49.679 7.17539 49.1674 7.68737C48.6412 8.20613 48.2784 8.87272 48.0497 9.57238C47.7623 10.4554 47.6669 11.3911 47.6729 12.3164C47.6784 13.0948 47.7596 13.8781 47.9776 14.6274C48.1794 15.3257 48.5106 15.9886 48.9664 16.5547C49.3106 16.9863 49.7504 17.3532 50.2703 17.5485C50.7127 17.7177 51.1936 17.7677 51.6642 17.7398C52.2623 17.7044 52.867 17.5226 53.3391 17.142C53.6802 16.8693 53.9377 16.4932 54.0633 16.0734C54.1046 15.9688 54.0843 15.8549 54.0889 15.7457C54.0931 15.4213 54.081 15.0971 54.0834 14.7725C54.082 14.1643 54.0924 13.5564 54.0894 12.948C54.9572 12.9486 55.825 12.9474 56.6929 12.9486C56.6927 14.6512 56.6931 16.3538 56.6927 18.0565C56.5564 18.0569 56.4201 18.0567 56.2839 18.0567C55.833 17.6369 55.378 17.2216 54.9271 16.8017C54.5778 17.2603 54.0758 17.5784 53.5468 17.7893C52.9194 18.039 52.2444 18.1518 51.5719 18.1708C50.8244 18.1883 50.0714 18.1031 49.354 17.8873C48.0836 17.5102 46.955 16.6989 46.1559 15.6422C45.6825 15.0137 45.3451 14.2832 45.1723 13.5146C45.0663 13.0425 45.0122 12.5581 45.0163 12.0742C45.0042 11.1786 45.181 10.2754 45.5677 9.46605C45.928 8.70644 46.4658 8.039 47.099 7.4914C47.737 6.93726 48.4903 6.51828 49.2965 6.2693ZM76.7836 5.96766C77.7803 5.90062 78.7994 6.00104 79.7414 6.3489C80.459 6.611 81.122 7.01964 81.6867 7.53577C82.2777 8.07252 82.7764 8.71781 83.1124 9.44496C83.4933 10.257 83.6606 11.159 83.6575 12.0534C83.6598 13.0134 83.4618 13.9824 83.0208 14.8378C82.6414 15.5793 82.0947 16.2278 81.4565 16.7576C80.8363 17.2711 80.1111 17.655 79.3386 17.8775C78.7972 18.0352 78.2355 18.1174 77.673 18.1389C76.6816 18.1787 75.6737 18.0453 74.752 17.6654C73.9965 17.3567 73.3096 16.8837 72.7417 16.2965C72.1467 15.7005 71.6766 14.976 71.3923 14.181C71.0558 13.2416 70.9752 12.2217 71.0862 11.2333C71.1906 10.3059 71.5167 9.40248 72.0469 8.63467C72.5055 7.97144 73.0904 7.39516 73.762 6.95111C74.6571 6.35643 75.7164 6.03778 76.7836 5.96766ZM77.0026 6.45261C76.5714 6.49929 76.1506 6.64631 75.7884 6.88633C75.4247 7.12335 75.1187 7.44291 74.8691 7.79763C74.3817 8.49555 74.0982 9.31843 73.9434 10.1515C73.7679 11.1208 73.7447 12.1144 73.8281 13.0946C73.9201 14.1125 74.1656 15.1362 74.6901 16.0209C75.0445 16.6128 75.5432 17.1415 76.1806 17.4212C76.6748 17.6422 77.2313 17.7017 77.7652 17.6325C78.1875 17.5767 78.5962 17.4214 78.9472 17.18C79.2591 16.9683 79.5246 16.6941 79.7473 16.391C80.0218 16.0112 80.2468 15.5955 80.4141 15.1574C80.7718 14.2266 80.897 13.2226 80.9143 12.2301C80.9218 11.6388 80.8918 11.0456 80.8048 10.4603C80.6735 9.57585 80.4028 8.69927 79.9131 7.94622C79.5711 7.40224 79.0964 6.92301 78.5017 6.6665C78.033 6.45923 77.5088 6.39868 77.0026 6.45261ZM59.2253 6.08712C61.0442 6.08691 62.8629 6.08712 64.6819 6.08712C65.5372 6.08832 66.4054 6.26839 67.1535 6.69609C67.4935 6.88679 67.8027 7.12907 68.0876 7.39491C68.3497 7.64595 68.5769 7.93561 68.7469 8.25742C68.9449 8.62984 69.0623 9.04353 69.1003 9.46356C69.1498 10.0023 69.0893 10.5558 68.8903 11.0604C68.6533 11.6726 68.2138 12.1876 67.6978 12.5828C67.3307 12.8641 66.9198 13.0875 66.4847 13.2423C66.1541 13.3566 65.8126 13.4491 65.4636 13.4805C65.7089 13.4997 65.9555 13.4855 66.2015 13.49C66.4729 13.49 66.7441 13.49 67.0156 13.49C67.8703 15.0117 68.7264 16.5327 69.578 18.0562C68.6174 18.057 67.6569 18.0564 66.6966 18.0566C65.8622 16.5532 65.0302 15.049 64.1965 13.5454C63.4093 13.5452 62.6221 13.545 61.835 13.5454C61.8348 15.049 61.8348 16.5525 61.835 18.0561C60.9652 18.0575 60.0956 18.0559 59.2259 18.0567C59.2243 14.0668 59.2255 10.077 59.2253 6.08712ZM61.8352 6.6842C61.8346 8.77202 61.8348 10.8601 61.835 12.9479C62.4604 12.9485 63.0859 12.9477 63.7112 12.9483C63.9373 12.9485 64.1651 12.9251 64.3824 12.86C64.8737 12.7181 65.2912 12.3735 65.5625 11.943C65.8126 11.5533 65.9577 11.104 66.0342 10.649C66.1119 10.17 66.1205 9.68041 66.0652 9.19855C66.0117 8.75006 65.897 8.30465 65.6882 7.90285C65.5085 7.55701 65.2546 7.24432 64.9296 7.02688C64.5863 6.7931 64.1685 6.67661 63.7548 6.68391C63.1149 6.68432 62.4749 6.6842 61.8352 6.6842ZM85.8264 6.08176C86.6963 6.08136 87.5662 6.08136 88.4362 6.08176C88.4362 8.50708 88.4362 10.9326 88.4362 13.3579C88.4249 13.8555 88.4654 14.357 88.5952 14.8387C88.7811 15.5508 89.1824 16.2169 89.7748 16.6599C90.4235 17.151 91.2507 17.3547 92.0546 17.3432C92.8698 17.3498 93.709 17.1152 94.342 16.5835C94.555 16.4058 94.7432 16.1987 94.9007 15.9696C94.8969 13.5288 94.8999 11.0881 94.8991 8.64731C94.9007 7.79363 94.8946 6.94026 94.9051 6.08681C95.7728 6.08722 96.6404 6.08665 97.5089 6.08702C97.5089 10.0767 97.5081 14.0664 97.5089 18.0561C97.3716 18.0573 97.2351 18.0561 97.0986 18.0569C96.468 17.4803 95.8455 16.8954 95.2133 16.3213C94.7633 16.9874 94.0959 17.4925 93.3482 17.7758C92.4543 18.1177 91.4778 18.1769 90.5322 18.1C89.6712 18.025 88.8155 17.7835 88.0739 17.3306C87.4026 16.9217 86.8177 16.3576 86.4225 15.6729C86.1728 15.2382 86.0033 14.7578 85.9133 14.2642C85.8323 13.8341 85.8203 13.3951 85.8263 12.9586C85.8263 10.6662 85.8263 8.37398 85.8263 6.08158L85.8264 6.08176ZM100.107 6.08176C101.731 6.08136 103.356 6.08176 104.98 6.08156C105.339 6.08297 105.699 6.07343 106.058 6.10475C106.847 6.16824 107.63 6.40601 108.292 6.84742C108.851 7.22398 109.363 7.70457 109.666 8.31693C109.869 8.7185 109.973 9.16526 110 9.61367V10.0056C109.973 10.486 109.854 10.964 109.624 11.388C109.272 12.0463 108.698 12.564 108.055 12.9296C107.303 13.3551 106.433 13.5382 105.574 13.5399C104.621 13.5395 103.669 13.5398 102.717 13.5399C102.717 15.0435 102.717 16.5473 102.717 18.0509C101.847 18.0513 100.977 18.0513 100.108 18.0509C100.107 14.0612 100.107 10.0715 100.107 6.08176ZM102.717 6.67884C102.717 8.76669 102.717 10.8545 102.717 12.9424C103.266 12.9428 103.814 12.9424 104.363 12.9426C104.561 12.939 104.762 12.9536 104.959 12.9238C105.388 12.8681 105.797 12.6688 106.104 12.3632C106.342 12.1345 106.523 11.8512 106.658 11.5502C106.857 11.096 106.951 10.6008 106.978 10.1068C106.997 9.68556 106.979 9.26072 106.896 8.84649C106.812 8.42104 106.663 8.00329 106.421 7.64194C106.235 7.362 105.991 7.11934 105.7 6.95153C105.389 6.76973 105.03 6.68192 104.672 6.6786C104.021 6.6788 103.368 6.67824 102.717 6.67884Z" fill="black" fill-opacity="0.4"/>
</svg>
