<svg width="180" height="24" viewBox="0 0 180 24" fill="none" xmlns="http://www.w3.org/2000/svg">
<path d="M51.3262 0.484169H59.343L65.8055 17.7667L72.2203 0.484169H79.9543V23.5287H74.8142V5.91263L68.1165 23.5287H62.8334L56.1388 6.00561V23.5287H51.3262V0.484169Z" fill="black" fill-opacity="0.4"/>
<path d="M113.538 0.484169H131.225V23.5287H125.754V5.34188H118.538C118.491 8.58036 118.398 12.9122 118.303 15.3395C118.112 21.3868 116.37 23.5287 111.227 23.5287H108.776V18.6709H110.143C112.454 18.6709 113.207 17.6224 113.351 14.3391C113.49 10.8152 113.538 3.81563 113.538 0.484169Z" fill="black" fill-opacity="0.4"/>
<path d="M159.201 0.484169H180V5.34188H172.314V23.5287H166.888V5.34188H159.201V0.484169Z" fill="black" fill-opacity="0.4"/>
<path d="M34.0908 19.5078C31.9483 19.4469 30.7086 18.1964 30.7086 16.6124C30.7086 15.301 31.2935 14.6597 32.0659 14.2044C32.8765 13.7267 33.9319 13.5631 35.569 13.5022C37.1425 13.4445 38.4235 13.3772 40.8648 13.3772C40.8648 17.3114 38.414 19.2866 35.3719 19.495C34.8919 19.5271 34.5962 19.5206 34.094 19.5078H34.0908ZM37.1679 0.00961885H35.2098C30.5052 0.00961885 26.9386 2.8986 26.1216 7.19519L31.1218 8.00321C31.8053 5.95431 33.3756 4.55952 35.3623 4.46653C36.0044 4.43447 35.8519 4.44409 36.494 4.46653C39.4471 4.57555 40.7822 6.00241 40.7822 9.53267C35.1843 9.53267 31.3603 9.26653 28.5439 11.1391C26.2456 12.6685 25.2602 14.3647 25.2602 17.0453C25.2602 20.925 28.2514 24 33.0768 24C33.8333 24 33.525 24 33.7412 24C37.152 24 39.9048 22.6597 41.0237 21.0405V23.5222H46.0589V9.63206C46.0589 4.27415 43.2171 0 37.1615 0L37.1679 0.00961885Z" fill="black" fill-opacity="0.4"/>
<path d="M146.07 4.46653C146.642 4.43447 146.845 4.43447 147.421 4.46653C149.805 4.58838 152.316 6.1499 152.558 9.26012H140.815C141.089 6.48657 143.295 4.62044 146.073 4.46653H146.07ZM157.933 13.5631V11.4052C157.933 3.96954 153.305 0.121843 147.328 0.121843H146.159C139.728 0.121843 135.627 4.54669 135.414 10.7928C135.386 11.7066 135.386 12.0882 135.414 13.3387C135.567 19.5559 139.881 23.7403 145.647 23.891C146.702 23.923 146.569 23.9198 147.564 23.891C152.583 23.7499 156.385 20.8224 157.507 17.0004L152.65 16.1443C151.464 18.5395 149.198 19.4597 147.389 19.5495C146.817 19.5816 146.734 19.5719 146.162 19.5495C143.323 19.4309 140.783 17.1864 140.783 13.9254V13.5599H157.933V13.5631Z" fill="black" fill-opacity="0.4"/>
<path d="M101.904 13.7331C101.84 16.9908 99.4942 19.2 96.3377 19.3603C95.7305 19.3924 95.7687 19.3924 95.1647 19.3603C91.9764 19.2 89.6622 16.9876 89.5987 13.7331C89.5669 12.38 89.5669 11.6104 89.5987 10.2573C89.6622 7.03166 91.9764 4.82244 95.1647 4.66212C95.7719 4.63006 95.7337 4.63006 96.3377 4.66212C99.4942 4.82244 101.84 7.03487 101.904 10.2894C101.936 11.6425 101.936 12.38 101.904 13.7331ZM107.282 9.97194C107.161 4.39599 102.705 0.12505 96.8177 0.12505H94.6847C88.7944 0.12505 84.341 4.39599 84.2202 10.0008C84.1884 11.5559 84.1884 12.4601 84.2202 14.0152C84.341 19.6232 88.7976 23.891 94.6847 23.891H96.8177C102.708 23.891 107.161 19.62 107.282 14.0152C107.314 12.4601 107.314 11.5271 107.282 9.97194Z" fill="black" fill-opacity="0.4"/>
<path d="M16.7792 15.4004C16.1434 17.5359 14.4428 19.0012 12.1541 19.3218C11.4961 19.4148 10.8412 19.3924 10.3104 19.3186C7.46536 18.9178 5.46273 16.7631 5.40234 13.7363C5.37055 12.3832 5.37055 11.6136 5.40234 10.2605C5.46273 7.21122 7.56391 4.97956 10.4598 4.66854C10.6283 4.6493 11.2576 4.59158 11.868 4.65892C14.3061 4.92505 16.1403 6.4 16.7983 8.64449L22.0973 7.60882C20.9593 3.23527 17.0303 0.128256 12.0078 0.128256H10.4852C4.60128 0.12505 0.144634 4.39599 0.0238409 10.004C-0.00794695 11.5591 -0.00794695 12.4633 0.0238409 14.0184C0.147813 19.6264 4.60128 23.8942 10.4884 23.8942H12.011C17.1289 23.8942 21.096 20.6653 22.145 16.1379L16.7792 15.3972V15.4004Z" fill="black" fill-opacity="0.4"/>
</svg>
