<svg width="220" height="24" viewBox="0 0 220 24" fill="none" xmlns="http://www.w3.org/2000/svg">
<path fill-rule="evenodd" clip-rule="evenodd" d="M7.66704 23.8994C4.00057 23.8994 0 22.2859 0 19.7139V16.0454H0.603121C1.34504 20.6413 3.59668 22.5273 7.36274 22.5273C9.68336 22.5273 11.7671 21.2931 11.7671 19.0278C11.7671 17.043 10.5217 15.773 8.07094 14.2997L3.93469 11.7953C1.0768 10.0807 0 8.43609 0 5.89838C0 2.36776 2.58967 0.0682468 6.52117 0.0682468C9.85275 0.0682468 13.7843 1.61162 13.7843 4.18367V7.85448H13.1812C12.4392 3.25623 10.2873 1.44032 6.52117 1.44032C4.53777 1.44032 2.62023 2.78057 2.62023 4.90318C2.62023 6.89353 3.90093 7.91902 6.35807 9.39468L10.4919 11.8965C13.3522 13.6136 14.6611 15.0192 14.6611 17.5545C14.6611 21.3942 12.0048 23.8994 7.66704 23.8994Z" fill="black" fill-opacity="0.28"/>
<path d="M7.66704 23.8994C4.00057 23.8994 0 22.2859 0 19.7139V16.0454H0.603121C1.34504 20.6413 3.59668 22.5273 7.36274 22.5273C9.68336 22.5273 11.7671 21.2931 11.7671 19.0278C11.7671 17.043 10.5217 15.773 8.07094 14.2997L3.93469 11.7953C1.0768 10.0807 0 8.43609 0 5.89838C0 2.36776 2.58967 0.0682468 6.52117 0.0682468C9.85275 0.0682468 13.7843 1.61162 13.7843 4.18367V7.85448H13.1812C12.4392 3.25623 10.2873 1.44032 6.52117 1.44032C4.53777 1.44032 2.62023 2.78057 2.62023 4.90318C2.62023 6.89353 3.90093 7.91902 6.35807 9.39468L10.4919 11.8965C13.3522 13.6136 14.6611 15.0192 14.6611 17.5545C14.6611 21.3942 12.0048 23.8994 7.66704 23.8994Z" fill="black" fill-opacity="0.28"/>
<path fill-rule="evenodd" clip-rule="evenodd" d="M31.3603 0.692212C33.7177 0.692212 34.2213 2.06429 34.2213 3.43551V6.00517H33.5492C33.5492 3.26105 32.0332 2.06429 29.3407 2.06429H23.08V10.9747H32.1681V12.346H23.08V21.9425H28.9729C31.9995 21.9425 33.6848 20.9138 34.6918 18.1729L35.3639 18.3418L34.1884 21.5999C33.8175 22.6285 33.0095 23.3145 31.6647 23.3145H20.0559V4.80442C20.0559 2.74947 19.721 1.37825 17.696 1.37825H17.0286V0.692212H31.3603Z" fill="black" fill-opacity="0.28"/>
<path d="M31.3603 0.692212C33.7177 0.692212 34.2213 2.06429 34.2213 3.43551V6.00517H33.5492C33.5492 3.26105 32.0332 2.06429 29.3407 2.06429H23.08V10.9747H32.1681V12.346H23.08V21.9425H28.9729C31.9995 21.9425 33.6848 20.9138 34.6918 18.1729L35.3639 18.3418L34.1884 21.5999C33.8175 22.6285 33.0095 23.3145 31.6647 23.3145H20.0559V4.80442C20.0559 2.74947 19.721 1.37825 17.696 1.37825H17.0286V0.692212H31.3603Z" fill="black" fill-opacity="0.28"/>
<path fill-rule="evenodd" clip-rule="evenodd" d="M56.6426 0.692212L42.3698 21.9425H56.139V23.3145H38.1692V22.6286L52.1111 2.06429H44.0511C41.365 2.06429 39.8515 3.26105 39.8515 6.00517H39.1825V3.43551C39.1825 2.06429 39.6827 0.692212 42.0371 0.692212H56.6426Z" fill="black" fill-opacity="0.28"/>
<path d="M56.6426 0.692212L42.3698 21.9425H56.139V23.3145H38.1692V22.6286L52.1111 2.06429H44.0511C41.365 2.06429 39.8515 3.26105 39.8515 6.00517H39.1825V3.43551C39.1825 2.06429 39.6827 0.692212 42.0371 0.692212H56.6426Z" fill="black" fill-opacity="0.28"/>
<path fill-rule="evenodd" clip-rule="evenodd" d="M81.287 23.3145C80.9519 23.4158 80.4431 23.4891 79.9395 23.4891C78.4235 23.4891 75.6949 22.972 74.2175 19.031L73.3736 16.8016H63.9453L61.2503 23.3145H59.7368L69.1661 0.692212H70.1753L77.5796 19.031C78.6281 21.6031 79.4359 22.4572 81.287 22.6286V23.3145ZM64.4486 15.4304H72.7015L68.6593 5.49045L64.4486 15.4304Z" fill="black" fill-opacity="0.28"/>
<path d="M81.287 23.3145C80.9519 23.4158 80.4431 23.4891 79.9395 23.4891C78.4235 23.4891 75.6949 22.972 74.2175 19.031L73.3736 16.8016H63.9453L61.2503 23.3145H59.7368L69.1661 0.692212H70.1753L77.5796 19.031C78.6281 21.6031 79.4359 22.4572 81.287 22.6286V23.3145ZM64.4486 15.4304H72.7015L68.6593 5.49045L64.4486 15.4304Z" fill="black" fill-opacity="0.28"/>
<path fill-rule="evenodd" clip-rule="evenodd" d="M90.0751 12.8607H87.7185V23.3145H84.6801V4.80442C84.6801 2.74947 84.343 1.37825 82.3227 1.37825H81.6451V0.692212H90.4156C93.2766 0.692212 98.8402 1.37824 98.8402 6.8625C98.8402 10.8026 95.8082 12.1747 93.4483 12.6895L96.9869 18.69C98.7075 21.6023 99.8526 22.4572 101.538 22.6309V23.3145C101.203 23.4883 100.359 23.6571 99.5155 23.6571C97.1579 23.6571 95.6394 22.4572 93.4483 18.69L90.0751 12.8607ZM95.4677 6.8625C95.4677 3.26105 92.0979 1.89216 90.2439 1.89216C89.4008 1.89216 88.3874 2.06429 87.7185 2.23555V11.3173C88.3874 11.4886 89.4008 11.66 90.2439 11.66C92.0979 11.66 95.4677 10.2911 95.4677 6.8625Z" fill="black" fill-opacity="0.28"/>
<path d="M90.0751 12.8607H87.7185V23.3145H84.6801V4.80442C84.6801 2.74947 84.343 1.37825 82.3227 1.37825H81.6451V0.692212H90.4156C93.2766 0.692212 98.8402 1.37824 98.8402 6.8625C98.8402 10.8026 95.8082 12.1747 93.4483 12.6895L96.9869 18.69C98.7075 21.6023 99.8526 22.4572 101.538 22.6309V23.3145C101.203 23.4883 100.359 23.6571 99.5155 23.6571C97.1579 23.6571 95.6394 22.4572 93.4483 18.69L90.0751 12.8607ZM95.4677 6.8625C95.4677 3.26105 92.0979 1.89216 90.2439 1.89216C89.4008 1.89216 88.3874 2.06429 87.7185 2.23555V11.3173C88.3874 11.4886 89.4008 11.66 90.2439 11.66C92.0979 11.66 95.4677 10.2911 95.4677 6.8625Z" fill="black" fill-opacity="0.28"/>
<path fill-rule="evenodd" clip-rule="evenodd" d="M115.232 11.657C115.232 19.887 118.94 22.628 123.328 22.628C125.724 22.628 127.237 22.1498 128.557 21.4304V15.4633C128.557 13.5773 129.06 11.4522 134.124 11.4522V12.1375C131.93 12.1375 131.592 13.3717 131.592 15.3955V21.8408C129.163 23.3507 126.598 24 123.328 24C116.582 24 111.854 18.5157 111.854 11.657C111.854 5.14168 115.902 0 122.315 0C126.363 0 129.196 1.2342 130.411 2.74411C131.257 3.77278 131.257 5.82694 131.257 7.37031H130.579C129.735 3.42937 127.378 1.37207 123.328 1.37207C117.593 1.37207 115.232 6.5161 115.232 11.657Z" fill="black" fill-opacity="0.28"/>
<path d="M115.232 11.657C115.232 19.887 118.94 22.628 123.328 22.628C125.724 22.628 127.237 22.1498 128.557 21.4304V15.4633C128.557 13.5773 129.06 11.4522 134.124 11.4522V12.1375C131.93 12.1375 131.592 13.3717 131.592 15.3955V21.8408C129.163 23.3507 126.598 24 123.328 24C116.582 24 111.854 18.5157 111.854 11.657C111.854 5.14168 115.902 0 122.315 0C126.363 0 129.196 1.2342 130.411 2.74411C131.257 3.77278 131.257 5.82694 131.257 7.37031H130.579C129.735 3.42937 127.378 1.37207 123.328 1.37207C117.593 1.37207 115.232 6.5161 115.232 11.657Z" fill="black" fill-opacity="0.28"/>
<path fill-rule="evenodd" clip-rule="evenodd" d="M143.536 12.8607H141.179V23.3145H138.143V4.80442C138.143 2.74947 137.803 1.37825 135.787 1.37825H135.106V0.692212H143.876C146.737 0.692212 152.301 1.37824 152.301 6.8625C152.301 10.8026 149.269 12.1747 146.908 12.6895L150.447 18.69C152.165 21.6023 153.313 22.4572 154.999 22.6309V23.3145C154.664 23.4883 153.82 23.6571 152.976 23.6571C150.616 23.6571 149.099 22.4572 146.908 18.69L143.536 12.8607ZM148.931 6.8625C148.931 3.26105 145.559 1.89216 143.705 1.89216C142.861 1.89216 141.848 2.06429 141.179 2.23555V11.3173C141.848 11.4886 142.861 11.66 143.705 11.66C145.559 11.66 148.931 10.2911 148.931 6.8625Z" fill="black" fill-opacity="0.28"/>
<path d="M143.536 12.8607H141.179V23.3145H138.143V4.80442C138.143 2.74947 137.803 1.37825 135.787 1.37825H135.106V0.692212H143.876C146.737 0.692212 152.301 1.37824 152.301 6.8625C152.301 10.8026 149.269 12.1747 146.908 12.6895L150.447 18.69C152.165 21.6023 153.313 22.4572 154.999 22.6309V23.3145C154.664 23.4883 153.82 23.6571 152.976 23.6571C150.616 23.6571 149.099 22.4572 146.908 18.69L143.536 12.8607ZM148.931 6.8625C148.931 3.26105 145.559 1.89216 143.705 1.89216C142.861 1.89216 141.848 2.06429 141.179 2.23555V11.3173C141.848 11.4886 142.861 11.66 143.705 11.66C145.559 11.66 148.931 10.2911 148.931 6.8625Z" fill="black" fill-opacity="0.28"/>
<path fill-rule="evenodd" clip-rule="evenodd" d="M166.477 0C172.887 0 176.932 5.2819 176.932 11.9996C176.932 18.7205 172.887 24 166.477 24C160.066 24 156.021 18.7205 156.021 11.9996C156.021 5.2819 160.066 0 166.477 0ZM166.477 1.37212C162.094 1.37212 159.396 5.48751 159.396 11.9996C159.396 18.5157 162.094 22.6303 166.477 22.6303C170.856 22.6303 173.556 18.5157 173.556 11.9996C173.556 5.48751 170.856 1.37212 166.477 1.37212Z" fill="black" fill-opacity="0.28"/>
<path d="M166.477 0C172.887 0 176.932 5.2819 176.932 11.9996C176.932 18.7205 172.887 24 166.477 24C160.066 24 156.021 18.7205 156.021 11.9996C156.021 5.2819 160.066 0 166.477 0ZM166.477 1.37212C162.094 1.37212 159.396 5.48751 159.396 11.9996C159.396 18.5157 162.094 22.6303 166.477 22.6303C170.856 22.6303 173.556 18.5157 173.556 11.9996C173.556 5.48751 170.856 1.37212 166.477 1.37212Z" fill="black" fill-opacity="0.28"/>
<path fill-rule="evenodd" clip-rule="evenodd" d="M181.849 4.80524C181.849 2.75027 181.514 1.3759 179.487 1.3759H178.817V0.692212H181.849C184.212 0.692212 184.882 1.37586 184.882 4.80524V14.5755C184.882 19.3737 186.401 22.2859 190.849 22.2859C196.009 22.2859 197.697 19.545 197.697 13.5436V0.692212H199.044V13.5436C199.044 20.231 197.357 23.6572 190.445 23.6572C183.872 23.6572 181.849 20.231 181.849 13.5436V4.80524Z" fill="black" fill-opacity="0.28"/>
<path d="M181.849 4.80524C181.849 2.75027 181.514 1.3759 179.487 1.3759H178.817V0.692212H181.849C184.212 0.692212 184.882 1.37586 184.882 4.80524V14.5755C184.882 19.3737 186.401 22.2859 190.849 22.2859C196.009 22.2859 197.697 19.545 197.697 13.5436V0.692212H199.044V13.5436C199.044 20.231 197.357 23.6572 190.445 23.6572C183.872 23.6572 181.849 20.231 181.849 13.5436V4.80524Z" fill="black" fill-opacity="0.28"/>
<path fill-rule="evenodd" clip-rule="evenodd" d="M208.884 23.3097H205.856V4.80274C205.856 2.74461 205.521 1.37337 203.496 1.37337H202.827V0.687337H211.578C214.442 0.687337 220 1.37338 220 7.5429C220 13.3698 214.442 14.0558 212.591 14.0558H208.884V23.3097ZM216.63 7.37161C216.63 3.25938 213.263 1.88728 211.412 1.88728C210.571 1.88728 209.561 2.05942 208.884 2.23308V12.5156C209.561 12.6846 210.571 12.8559 211.412 12.8559C213.263 12.8559 216.63 11.4838 216.63 7.37161Z" fill="black" fill-opacity="0.28"/>
<path d="M208.884 23.3097H205.856V4.80274C205.856 2.74461 205.521 1.37337 203.496 1.37337H202.827V0.687337H211.578C214.442 0.687337 220 1.37338 220 7.5429C220 13.3698 214.442 14.0558 212.591 14.0558H208.884V23.3097ZM216.63 7.37161C216.63 3.25938 213.263 1.88728 211.412 1.88728C210.571 1.88728 209.561 2.05942 208.884 2.23308V12.5156C209.561 12.6846 210.571 12.8559 211.412 12.8559C213.263 12.8559 216.63 11.4838 216.63 7.37161Z" fill="black" fill-opacity="0.28"/>
</svg>
