<svg width="3191" height="217" viewBox="0 0 3191 217" fill="none" xmlns="http://www.w3.org/2000/svg">
<path d="M1845.03 5.26263C1839.6 1.94176 1833.66 0.290356 1827.16 0.290356H1650V217H1673.91V136.228H1827.16C1833.65 136.228 1839.6 134.577 1845.03 131.256C1850.43 127.935 1854.71 123.562 1857.86 118.136C1861.01 112.71 1862.59 106.685 1862.59 100.062V36.457C1862.59 29.8334 1861.01 23.8087 1857.86 18.3828C1854.71 12.9569 1850.43 8.5835 1845.03 5.26263ZM1838.68 100.062C1838.68 103.274 1837.54 105.996 1835.28 108.192C1833.02 110.405 1830.3 111.512 1827.16 111.512H1685.43C1682.29 111.512 1679.56 110.405 1677.31 108.192C1675.05 105.978 1673.91 103.274 1673.91 100.062V36.457C1673.91 33.245 1675.05 30.4867 1677.31 28.1639C1679.56 25.8593 1682.29 24.6979 1685.43 24.6979H1827.16C1830.3 24.6979 1833.01 25.8593 1835.28 28.1639C1837.54 30.4686 1838.68 33.245 1838.68 36.457V100.062Z" fill="white" fill-opacity="0.1"/>
<path d="M2078.59 5.26263C2073.17 1.94176 2067.23 0.290356 2060.73 0.290356H1883.57V217H1907.48V136.228H1996.67L2063.09 217H2094.68V216.692L2028 136.21H2060.73C2067.22 136.21 2073.17 134.559 2078.59 131.238C2084 127.917 2088.28 123.544 2091.43 118.118C2094.58 112.692 2096.16 106.667 2096.16 100.044V36.4389C2096.16 29.8153 2094.58 23.7906 2091.43 18.3647C2088.28 12.9388 2084 8.56534 2078.59 5.24447V5.26263ZM2072.23 100.062C2072.23 103.274 2071.09 105.996 2068.83 108.192C2066.58 110.405 2063.86 111.512 2060.71 111.512H1918.98C1915.84 111.512 1913.12 110.405 1910.86 108.192C1908.6 105.978 1907.46 103.274 1907.46 100.062V36.457C1907.46 33.245 1908.6 30.4867 1910.86 28.1639C1913.12 25.8593 1915.84 24.6979 1918.98 24.6979H2060.71C2063.86 24.6979 2066.56 25.8593 2068.83 28.1639C2071.09 30.4686 2072.23 33.245 2072.23 36.457V100.062Z" fill="white" fill-opacity="0.1"/>
<path d="M2154.31 0H2130.1V217H2154.31V0Z" fill="white" fill-opacity="0.1"/>
<path d="M2311.4 107.284L2223.11 0H2190.35V217H2214.26V27.7284L2311.4 145.574L2408.54 27.7284V217H2432.46V0H2399.68L2311.4 107.284Z" fill="white" fill-opacity="0.1"/>
<path d="M2464.95 217H2658.92V192.574H2488.86V120.858H2625.57V96.142H2488.86V24.4075H2658.92V0H2464.95V217Z" fill="white" fill-opacity="0.1"/>
<path d="M2862.66 217H2893.66V216.692L2804.49 108.5L2893.38 0.290356V0H2862.66L2783.53 96.142H2715.03V0H2690.81V217H2715.03V120.858H2783.53L2862.66 217Z" fill="white" fill-opacity="0.1"/>
<path d="M3072.88 217H3096.81V24.4075H3191V0H2978.41V24.4075H3072.88V217Z" fill="white" fill-opacity="0.1"/>
<path d="M2953.02 217V0H2928.81L2909.65 26.8755H2928.81V217H2953.02Z" fill="white" fill-opacity="0.1"/>
<path d="M195.025 5.26263C189.603 1.94176 183.665 0.290356 177.158 0.290356H0V217H23.9115V136.228H177.158C183.647 136.228 189.603 134.577 195.025 131.256C200.43 127.935 204.714 123.562 207.861 118.136C211.008 112.71 212.59 106.685 212.59 100.062V36.457C212.59 29.8334 211.008 23.8087 207.861 18.3828C204.714 12.9569 200.43 8.5835 195.025 5.26263ZM188.678 100.062C188.678 103.274 187.541 105.996 185.283 108.192C183.025 110.405 180.305 111.512 177.158 111.512H35.4317C32.285 111.512 29.565 110.405 27.3071 108.192C25.0493 105.978 23.9115 103.274 23.9115 100.062V36.457C23.9115 33.245 25.0493 30.4867 27.3071 28.1639C29.565 25.8593 32.285 24.6979 35.4317 24.6979H177.158C180.305 24.6979 183.007 25.8593 185.283 28.1639C187.541 30.4686 188.678 33.245 188.678 36.457V100.062Z" fill="white" fill-opacity="0.1"/>
<path d="M428.593 5.26263C423.171 1.94176 417.233 0.290356 410.726 0.290356H233.568V217H257.48V136.228H346.672L413.091 217H444.682V216.692L377.997 136.21H410.726C417.215 136.21 423.171 134.559 428.593 131.238C433.998 127.917 438.282 123.544 441.429 118.118C444.576 112.692 446.158 106.667 446.158 100.044V36.4389C446.158 29.8153 444.576 23.7906 441.429 18.3647C438.282 12.9388 433.998 8.56534 428.593 5.24447V5.26263ZM422.229 100.062C422.229 103.274 421.091 105.996 418.833 108.192C416.575 110.405 413.855 111.512 410.708 111.512H268.982C265.835 111.512 263.115 110.405 260.857 108.192C258.6 105.978 257.462 103.274 257.462 100.062V36.457C257.462 33.245 258.6 30.4867 260.857 28.1639C263.115 25.8593 265.835 24.6979 268.982 24.6979H410.708C413.855 24.6979 416.557 25.8593 418.833 28.1639C421.091 30.4686 422.229 33.245 422.229 36.457V100.062Z" fill="white" fill-opacity="0.1"/>
<path d="M504.31 0H480.096V217H504.31V0Z" fill="white" fill-opacity="0.1"/>
<path d="M661.396 107.284L573.111 0H540.346V217H564.257V27.7284L661.396 145.574L758.535 27.7284V217H782.465V0H749.682L661.396 107.284Z" fill="white" fill-opacity="0.1"/>
<path d="M814.945 217H1008.92V192.574H838.857V120.858H975.57V96.142H838.857V24.4075H1008.92V0H814.945V217Z" fill="white" fill-opacity="0.1"/>
<path d="M1212.66 217H1243.66V216.692L1154.49 108.5L1243.38 0.290356V0H1212.66L1133.53 96.142H1065.03V0H1040.81V217H1065.03V120.858H1133.53L1212.66 217Z" fill="white" fill-opacity="0.1"/>
<path d="M1422.88 217H1446.81V24.4075H1541V0H1328.41V24.4075H1422.88V217Z" fill="white" fill-opacity="0.1"/>
<path d="M1303.02 217V0H1278.81L1259.65 26.8755H1278.81V217H1303.02Z" fill="white" fill-opacity="0.1"/>
</svg>
