<svg width="1920" height="217" viewBox="0 0 1920 217" fill="none" xmlns="http://www.w3.org/2000/svg">
<path d="M732.025 5.26263C726.603 1.94176 720.665 0.290356 714.158 0.290356H537V217H560.911V136.228H714.158C720.647 136.228 726.603 134.577 732.025 131.256C737.43 127.935 741.714 123.562 744.861 118.136C748.008 112.71 749.59 106.685 749.59 100.062V36.457C749.59 29.8334 748.008 23.8087 744.861 18.3828C741.714 12.9569 737.43 8.5835 732.025 5.26263ZM725.678 100.062C725.678 103.274 724.541 105.996 722.283 108.192C720.025 110.405 717.305 111.512 714.158 111.512H572.432C569.285 111.512 566.565 110.405 564.307 108.192C562.049 105.978 560.911 103.274 560.911 100.062V36.457C560.911 33.245 562.049 30.4867 564.307 28.1639C566.565 25.8593 569.285 24.6979 572.432 24.6979H714.158C717.305 24.6979 720.007 25.8593 722.283 28.1639C724.541 30.4686 725.678 33.245 725.678 36.457V100.062Z" fill="white" fill-opacity="0.1"/>
<path d="M965.593 5.26263C960.171 1.94176 954.233 0.290356 947.726 0.290356H770.568V217H794.48V136.228H883.672L950.091 217H981.682V216.692L914.997 136.21H947.726C954.215 136.21 960.171 134.559 965.593 131.238C970.998 127.917 975.282 123.544 978.429 118.118C981.576 112.692 983.158 106.667 983.158 100.044V36.4389C983.158 29.8153 981.576 23.7906 978.429 18.3647C975.282 12.9388 970.998 8.56534 965.593 5.24447V5.26263ZM959.229 100.062C959.229 103.274 958.091 105.996 955.833 108.192C953.575 110.405 950.855 111.512 947.708 111.512H805.982C802.835 111.512 800.115 110.405 797.857 108.192C795.6 105.978 794.462 103.274 794.462 100.062V36.457C794.462 33.245 795.6 30.4867 797.857 28.1639C800.115 25.8593 802.835 24.6979 805.982 24.6979H947.708C950.855 24.6979 953.557 25.8593 955.833 28.1639C958.091 30.4686 959.229 33.245 959.229 36.457V100.062Z" fill="white" fill-opacity="0.1"/>
<path d="M1041.31 0H1017.1V217H1041.31V0Z" fill="white" fill-opacity="0.1"/>
<path d="M1198.4 107.284L1110.11 0H1077.35V217H1101.26V27.7284L1198.4 145.574L1295.54 27.7284V217H1319.46V0H1286.68L1198.4 107.284Z" fill="white" fill-opacity="0.1"/>
<path d="M1351.95 217H1545.92V192.574H1375.86V120.858H1512.57V96.142H1375.86V24.4075H1545.92V0H1351.95V217Z" fill="white" fill-opacity="0.1"/>
<path d="M1749.66 217H1780.66V216.692L1691.49 108.5L1780.38 0.290356V0H1749.66L1670.53 96.142H1602.03V0H1577.81V217H1602.03V120.858H1670.53L1749.66 217Z" fill="white" fill-opacity="0.1"/>
<path d="M1959.88 217H1983.81V24.4075H2078V0H1865.41V24.4075H1959.88V217Z" fill="white" fill-opacity="0.1"/>
<path d="M1840.02 217V0H1815.81L1796.65 26.8755H1815.81V217H1840.02Z" fill="white" fill-opacity="0.1"/>
<path d="M-917.975 5.26263C-923.397 1.94176 -929.335 0.290356 -935.842 0.290356H-1113V217H-1089.09V136.228H-935.842C-929.353 136.228 -923.397 134.577 -917.975 131.256C-912.57 127.935 -908.286 123.562 -905.139 118.136C-901.992 112.71 -900.41 106.685 -900.41 100.062V36.457C-900.41 29.8334 -901.992 23.8087 -905.139 18.3828C-908.286 12.9569 -912.57 8.5835 -917.975 5.26263ZM-924.322 100.062C-924.322 103.274 -925.459 105.996 -927.717 108.192C-929.975 110.405 -932.695 111.512 -935.842 111.512H-1077.57C-1080.71 111.512 -1083.44 110.405 -1085.69 108.192C-1087.95 105.978 -1089.09 103.274 -1089.09 100.062V36.457C-1089.09 33.245 -1087.95 30.4867 -1085.69 28.1639C-1083.44 25.8593 -1080.71 24.6979 -1077.57 24.6979H-935.842C-932.695 24.6979 -929.993 25.8593 -927.717 28.1639C-925.459 30.4686 -924.322 33.245 -924.322 36.457V100.062Z" fill="white" fill-opacity="0.1"/>
<path d="M-684.407 5.26263C-689.829 1.94176 -695.767 0.290356 -702.274 0.290356H-879.432V217H-855.52V136.228H-766.328L-699.909 217H-668.318V216.692L-735.003 136.21H-702.274C-695.785 136.21 -689.829 134.559 -684.407 131.238C-679.002 127.917 -674.718 123.544 -671.571 118.118C-668.424 112.692 -666.842 106.667 -666.842 100.044V36.4389C-666.842 29.8153 -668.424 23.7906 -671.571 18.3647C-674.718 12.9388 -679.002 8.56534 -684.407 5.24447V5.26263ZM-690.771 100.062C-690.771 103.274 -691.909 105.996 -694.167 108.192C-696.425 110.405 -699.145 111.512 -702.292 111.512H-844.018C-847.165 111.512 -849.885 110.405 -852.143 108.192C-854.4 105.978 -855.538 103.274 -855.538 100.062V36.457C-855.538 33.245 -854.4 30.4867 -852.143 28.1639C-849.885 25.8593 -847.165 24.6979 -844.018 24.6979H-702.292C-699.145 24.6979 -696.443 25.8593 -694.167 28.1639C-691.909 30.4686 -690.771 33.245 -690.771 36.457V100.062Z" fill="white" fill-opacity="0.1"/>
<path d="M-608.69 0H-632.904V217H-608.69V0Z" fill="white" fill-opacity="0.1"/>
<path d="M-451.604 107.284L-539.889 0H-572.654V217H-548.743V27.7284L-451.604 145.574L-354.465 27.7284V217H-330.535V0H-363.318L-451.604 107.284Z" fill="white" fill-opacity="0.1"/>
<path d="M-298.055 217H-104.078V192.574H-274.143V120.858H-137.43V96.142H-274.143V24.4075H-104.078V0H-298.055V217Z" fill="white" fill-opacity="0.1"/>
<path d="M99.6576 217H130.662V216.692L41.4879 108.5L130.378 0.290356V0H99.6576L20.5275 96.142H-47.9713V0H-72.1851V217H-47.9713V120.858H20.5275L99.6576 217Z" fill="white" fill-opacity="0.1"/>
<path d="M309.883 217H333.812V24.4075H428V0H215.41V24.4075H309.883V217Z" fill="white" fill-opacity="0.1"/>
<path d="M190.023 217V0H165.81L146.645 26.8755H165.81V217H190.023Z" fill="white" fill-opacity="0.1"/>
</svg>
