<svg width="1383" height="217" viewBox="0 0 1383 217" fill="none" xmlns="http://www.w3.org/2000/svg">
<path d="M195.025 5.26263C189.603 1.94176 183.665 0.290356 177.158 0.290356H0V217H23.9115V136.228H177.158C183.647 136.228 189.603 134.577 195.025 131.256C200.43 127.935 204.714 123.562 207.861 118.136C211.008 112.71 212.59 106.685 212.59 100.062V36.457C212.59 29.8334 211.008 23.8087 207.861 18.3828C204.714 12.9569 200.43 8.5835 195.025 5.26263ZM188.678 100.062C188.678 103.274 187.541 105.996 185.283 108.192C183.025 110.405 180.305 111.512 177.158 111.512H35.4317C32.285 111.512 29.565 110.405 27.3071 108.192C25.0493 105.978 23.9115 103.274 23.9115 100.062V36.457C23.9115 33.245 25.0493 30.4867 27.3071 28.1639C29.565 25.8593 32.285 24.6979 35.4317 24.6979H177.158C180.305 24.6979 183.007 25.8593 185.283 28.1639C187.541 30.4686 188.678 33.245 188.678 36.457V100.062Z" fill="white" fill-opacity="0.1"/>
<path d="M428.593 5.26263C423.171 1.94176 417.233 0.290356 410.726 0.290356H233.568V217H257.48V136.228H346.672L413.091 217H444.682V216.692L377.997 136.21H410.726C417.215 136.21 423.171 134.559 428.593 131.238C433.998 127.917 438.282 123.544 441.429 118.118C444.576 112.692 446.158 106.667 446.158 100.044V36.4389C446.158 29.8153 444.576 23.7906 441.429 18.3647C438.282 12.9388 433.998 8.56534 428.593 5.24447V5.26263ZM422.229 100.062C422.229 103.274 421.091 105.996 418.833 108.192C416.575 110.405 413.855 111.512 410.708 111.512H268.982C265.835 111.512 263.115 110.405 260.857 108.192C258.6 105.978 257.462 103.274 257.462 100.062V36.457C257.462 33.245 258.6 30.4867 260.857 28.1639C263.115 25.8593 265.835 24.6979 268.982 24.6979H410.708C413.855 24.6979 416.557 25.8593 418.833 28.1639C421.091 30.4686 422.229 33.245 422.229 36.457V100.062Z" fill="white" fill-opacity="0.1"/>
<path d="M504.31 0H480.096V217H504.31V0Z" fill="white" fill-opacity="0.1"/>
<path d="M661.396 107.284L573.111 0H540.346V217H564.257V27.7284L661.396 145.574L758.535 27.7284V217H782.465V0H749.682L661.396 107.284Z" fill="white" fill-opacity="0.1"/>
<path d="M814.945 217H1008.92V192.574H838.857V120.858H975.57V96.142H838.857V24.4075H1008.92V0H814.945V217Z" fill="white" fill-opacity="0.1"/>
<path d="M1212.66 217H1243.66V216.692L1154.49 108.5L1243.38 0.290356V0H1212.66L1133.53 96.142H1065.03V0H1040.81V217H1065.03V120.858H1133.53L1212.66 217Z" fill="white" fill-opacity="0.1"/>
</svg>
