<svg width="142" height="20" viewBox="0 0 142 20" fill="none" xmlns="http://www.w3.org/2000/svg">
<path d="M17.9712 0.485035C17.4715 0.178964 16.9243 0.0267609 16.3248 0.0267609H0V20H2.20339V12.5556H16.3248C16.9227 12.5556 17.4715 12.4034 17.9712 12.0973C18.4692 11.7913 18.864 11.3882 19.154 10.8881C19.4439 10.388 19.5897 9.83275 19.5897 9.22228V3.36009C19.5897 2.74962 19.4439 2.19435 19.154 1.69426C18.864 1.19418 18.4692 0.791106 17.9712 0.485035ZM17.3863 9.22228C17.3863 9.51831 17.2815 9.7692 17.0734 9.97157C16.8654 10.1756 16.6147 10.2776 16.3248 10.2776H3.26496C2.975 10.2776 2.72435 10.1756 2.5163 9.97157C2.30824 9.76752 2.20339 9.51831 2.20339 9.22228V3.36009C2.20339 3.06406 2.30824 2.80984 2.5163 2.59576C2.72435 2.38335 2.975 2.2763 3.26496 2.2763H16.3248C16.6147 2.2763 16.8637 2.38335 17.0734 2.59576C17.2815 2.80817 17.3863 3.06406 17.3863 3.36009V9.22228Z" fill="white"/>
<path d="M39.494 0.485035C38.9943 0.178964 38.4472 0.0267609 37.8476 0.0267609H21.5228V20H23.7262V12.5556H31.9451L38.0655 20H40.9766V19.9716L34.8316 12.5539H37.8476C38.4455 12.5539 38.9943 12.4017 39.494 12.0957C39.992 11.7896 40.3868 11.3865 40.6768 10.8864C40.9667 10.3864 41.1125 9.83108 41.1125 9.22061V3.35842C41.1125 2.74795 40.9667 2.19268 40.6768 1.6926C40.3868 1.19251 39.992 0.789432 39.494 0.483361V0.485035ZM38.9075 9.22228C38.9075 9.51831 38.8027 9.7692 38.5946 9.97157C38.3866 10.1756 38.1359 10.2776 37.8459 10.2776H24.7861C24.4962 10.2776 24.2455 10.1756 24.0375 9.97157C23.8294 9.76752 23.7246 9.51831 23.7246 9.22228V3.36009C23.7246 3.06406 23.8294 2.80984 24.0375 2.59576C24.2455 2.38335 24.4962 2.2763 24.7861 2.2763H37.8459C38.1359 2.2763 38.3849 2.38335 38.5946 2.59576C38.8027 2.80817 38.9075 3.06406 38.9075 3.36009V9.22228Z" fill="white"/>
<path d="M46.4711 0H44.2399V20H46.4711V0Z" fill="white"/>
<path d="M60.9463 9.88795L52.811 0H49.7917V20H51.9951V2.55561L60.9463 13.417L69.8975 2.55561V20H72.1025V0H69.0817L60.9463 9.88795Z" fill="white"/>
<path d="M75.0956 20H92.9701V17.7488H77.299V11.139H89.8968V8.86102H77.299V2.24954H92.9701V0H75.0956V20Z" fill="white"/>
<path d="M111.744 20H114.601V19.9716L106.384 10L114.575 0.0267609V0H111.744L104.452 8.86102H98.1402V0H95.909V20H98.1402V11.139H104.452L111.744 20Z" fill="white"/>
<path d="M131.116 20H133.321V2.24954H142V0H122.41V2.24954H131.116V20Z" fill="white"/>
<path d="M120.071 20V0H117.84L116.074 2.477H117.84V20H120.071Z" fill="white"/>
</svg>


